<svg width="543" height="590" viewBox="0 0 543 590" fill="none" xmlns="http://www.w3.org/2000/svg" style="width: 100%; height: 100%;">
<g clip-path="url(#clip0_35_2710)">
<path d="M55.8621 375.111C55.8621 375.111 50.1841 348.509 45.6281 329.227C51.7911 328.532 56.8931 328.898 63.0411 328.168C63.1611 331.015 64.2801 333.828 65.6961 336.35C67.5321 336.386 69.3691 336.336 71.4401 335.953C84.4201 334.986 85.7671 335.649 98.7821 335.778C99.7221 345.262 98.7611 354.821 97.8011 364.303C97.7721 364.592 97.7371 364.897 97.5641 365.13C97.3251 365.452 96.8951 365.551 96.5011 365.627C94.3091 366.053 92.1171 366.478 89.9251 366.904C76.0191 369.604 55.8621 375.112 55.8621 375.112V375.111Z" fill="white" stroke="#010101" stroke-width="1.5" stroke-linecap="round" stroke-linejoin="round"></path>
<path d="M434.447 50.229C433.131 70.974 432.832 91.784 433.552 112.559C417.534 114.174 401.408 114.718 385.318 114.183C383.55 96.427 385.653 67.354 384.319 53.956C384.194 52.702 420.723 50.062 434.447 50.229Z" fill="white" stroke="#010101" stroke-width="1.5" stroke-linecap="round" stroke-linejoin="round"></path>
<path d="M443.333 138.777C442.318 137.983 440.913 139.035 440.1 140.035C437.361 143.4 437.155 143.846 435.149 147.693C437.829 142.357 438.317 140.217 440.996 134.882C441.285 134.306 441.582 133.66 441.403 133.041C441.122 132.068 439.772 131.78 438.869 132.238C437.966 132.696 437.418 133.625 436.92 134.507C434.266 139.2 433.453 141.247 430.811 145.946C433.26 141.149 434.199 139.203 435.161 137.149C436.839 133.563 439.035 129.355 436.266 128.459C435.063 128.226 434.132 129.459 433.542 130.533C430.586 135.914 429.204 139.644 427.447 144.203C428.394 141.525 429.76 137.342 431.411 133.344C431.791 132.424 432.178 131.45 432.046 130.463C431.913 129.476 431.051 128.514 430.065 128.65C429.102 128.783 428.561 129.8 428.176 130.692C425.795 136.204 424.286 139.999 422.288 144.757C422.699 142.671 423.219 136.496 421.089 135.999C419.593 135.65 419.255 137.14 418.85 138.532C416.945 145.085 415.518 149.093 412.994 157.958C412.994 157.958 390.712 195.552 377.673 216.58C371.203 215.756 358.876 214.107 352.356 213.96C344.542 213.785 345.64 232.256 348.509 245.142C348.673 245.88 348.872 246.648 349.385 247.202C349.99 247.856 350.913 248.088 351.782 248.283C361.624 250.499 371.63 251.984 381.691 252.721C385.051 252.967 388.589 253.098 391.611 251.608C395.798 249.545 397.972 244.933 399.839 240.655C404.025 231.061 424.022 181.318 430.195 164.299C434.572 156.711 438.643 150.396 443.204 142.042C443.775 140.997 444.27 139.51 443.332 138.776L443.333 138.777Z" fill="white" stroke="#010101" stroke-width="1.5" stroke-linecap="round" stroke-linejoin="round"></path>
<path d="M196.546 294.077C192.96 300.88 187.954 306.896 182.77 312.576C168.053 303.789 154.11 296.016 139.859 286.491C134.559 282.948 129.662 279.418 124.154 276.913L124.156 276.909C116.443 272.958 106.296 268.745 97.733 264.851C94.99 263.604 94.364 266.186 95.376 267.351C97.754 270.088 99.627 270.953 103.638 272.837C96.374 270.421 93.354 269.535 86.09 267.118C85.172 266.812 84.059 266.539 83.338 267.161C82.599 267.797 82.766 269.069 83.421 269.818C84.076 270.568 85.057 270.926 85.993 271.254C90.059 272.68 94.01 274.129 96.631 275.2C92.076 273.482 88.037 272.168 82.092 270.791C80.905 270.516 79.177 270.29 78.576 271.331C77.463 273.964 82.657 275.399 86.431 276.532C88.593 277.181 90.66 277.774 95.84 279.139C90.608 277.981 88.548 277.228 83.313 276.083C82.33 275.868 81.279 275.657 80.353 276.02C79.427 276.383 78.773 277.568 79.321 278.418C79.67 278.959 80.347 279.167 80.965 279.334C86.699 280.885 88.619 281.939 94.353 283.49C90.171 282.427 89.704 282.283 85.411 282.079C84.136 282.018 82.44 282.358 82.381 283.63C82.327 284.806 83.762 285.423 84.915 285.693C96.259 288.351 96.08 287.621 107.424 290.279C107.424 290.279 153.72 329.974 172.664 340.582C177.968 343.552 183.576 346.345 189.633 346.87C195.69 347.394 202.336 345.185 206.267 340.068C209.405 336.865 212.544 333.662 215.682 330.459C218.724 327.354 223.779 321.295 224.401 316.994C225.044 312.542 202.129 292.386 196.546 294.077Z" fill="white" stroke="#010101" stroke-width="1.5" stroke-linecap="round" stroke-linejoin="round"></path>
<path d="M361.069 494.496C364.962 494.511 372.584 493.996 376.477 494.011C377.437 494.015 378.431 494.026 379.302 494.428C379.874 494.692 380.358 495.109 380.835 495.521C388.767 502.381 395.223 511.449 403.277 518.225C404.219 519.017 405.646 518.291 405.56 517.063C402.21 469.369 400.881 466.09 399.117 465.633C396.256 464.892 393.365 464.266 390.454 463.758C393.316 461.824 395.292 460.68 398.154 458.746C399.871 457.585 400.095 458.601 396.042 442.244C395.848 441.459 395.044 440.983 394.266 441.203C385.681 443.632 363.374 448.385 359.67 449.952C359.257 450.127 358.824 450.335 358.597 450.722C358.376 451.098 358.396 451.563 358.422 451.998C359.339 466.976 358.65 479.832 361.069 494.496Z" fill="#010101" stroke="#010101" stroke-width="1.5" stroke-linecap="round" stroke-linejoin="round"></path>
<path d="M281.542 541.5C282.968 545.122 284.394 548.745 285.82 552.367C286.172 553.26 286.529 554.188 286.478 555.146C286.445 555.775 286.236 556.379 286.03 556.974C282.591 566.881 279.804 577.224 276.489 587.214C276.101 588.382 277.304 589.439 278.413 588.905C321.484 568.148 324.038 565.701 323.81 563.893C323.44 560.961 322.952 558.044 322.347 555.151C325.203 557.094 326.997 558.507 329.852 560.451C331.565 561.617 330.705 562.201 344.402 552.384C345.059 551.913 345.204 550.99 344.712 550.349C339.279 543.272 326.611 524.305 323.785 521.444C323.47 521.125 323.116 520.8 322.673 520.732C322.242 520.666 321.817 520.856 321.423 521.042C307.847 527.435 294.27 533.827 281.542 541.5Z" fill="#010101" stroke="#010101" stroke-width="1.5" stroke-linecap="round" stroke-linejoin="round"></path>
<path d="M257.008 373.952C242.152 382.452 226.491 391.707 213.706 403.086C208.996 407.278 204.574 411.874 201.241 417.227C192.987 430.483 192.256 447.787 198.152 462.247C204.048 476.707 216.114 488.263 230.289 494.814C236.323 497.603 242.714 499.538 249.133 501.264C286.111 511.204 324.884 514.431 363.05 511.686C363.027 506.523 363.423 501.358 364.229 493.932C366.437 478.536 367.563 462.379 365.245 437.96C340.991 440.523 316.47 443.084 292.282 439.958C285.612 439.096 278.512 437.546 273.947 432.608C271.466 429.924 269.987 426.488 268.554 423.126C262.142 408.077 256.277 391.446 257.007 373.952H257.008Z" fill="#7B5FF1" stroke="#010101" stroke-width="1.5" stroke-linecap="round" stroke-linejoin="round"></path>
<path d="M289.211 449.156C314.165 452.691 339.687 452.187 364.482 447.67" stroke="#010101" stroke-width="1.5" stroke-linecap="round" stroke-linejoin="round"></path>
<path d="M487.071 369.465C492.776 358.806 501.911 350.017 512.783 344.729C516.343 342.998 520.428 341.616 524.206 342.799C528.03 343.996 530.687 347.663 531.694 351.542C532.701 355.421 532.316 359.515 531.756 363.483C528.934 383.482 521.893 402.621 514.417 421.384C496.47 421.441 465.296 423.305 462.401 423.109C461.126 423.023 480.829 382.137 487.072 369.466L487.071 369.465Z" fill="#55D087" stroke="#010101" stroke-width="1.5" stroke-linecap="round" stroke-linejoin="round"></path>
<path d="M217.894 173.247L216.639 199.738L231.242 234.315L241.317 254.532L269.063 274.609L305.806 262.061L304.198 229.714L275.197 180.916L247.452 166.834L217.894 173.247Z" fill="white" stroke="#010101" stroke-width="1.5" stroke-linecap="round" stroke-linejoin="round"></path>
<path d="M208.517 204.416C208.295 204.952 207.92 205.419 207.735 205.969C207.55 206.519 207.624 207.233 208.123 207.531C208.339 207.66 209.296 207.727 209.576 209.131C209.714 209.823 208.8 210.585 208.8 211.291C208.8 212.801 210.086 213.044 210.086 214.734C210.086 215.639 209.144 216.366 209.611 218.215C209.955 219.574 210.649 220.053 210.789 220.766C210.985 221.763 209.913 222.717 210.186 223.696C210.475 224.732 212.005 224.919 212.453 225.897C212.928 226.932 212.019 228.467 212.93 229.151C213.247 229.389 213.686 229.406 214.011 229.632C214.864 230.224 214.341 231.523 214.19 232.551C213.998 233.857 214.664 235.248 215.512 235.996C217.038 237.088 218.018 238.908 218.088 240.783C218.114 241.491 218.046 242.284 218.512 242.818C219.143 243.54 220.389 243.357 221.08 244.022C221.654 244.573 221.632 245.484 221.941 246.218C222.393 247.29 223.508 247.9 224.177 248.679C225.515 249.883 227.611 249.045 229.208 248.214C237.882 243.703 247.381 240.752 255.488 235.065C253.292 230.089 251.097 225.113 248.888 219.99C245.594 222.061 241.3 222.192 237.654 220.833C234.008 219.475 230.979 216.761 228.718 213.595C226.457 210.429 221 193.566 220.595 184.124C223.503 183.154 225.102 178.709 224.366 175.732C226.386 177.196 229.224 177.439 231.464 176.341C231.097 179.214 234.64 180.998 237.536 181.02C238.308 181.026 239.193 181.018 239.703 181.597C240.098 182.045 240.128 182.7 240.371 183.245C240.889 184.409 242.248 184.89 243.45 185.314C247.392 186.704 251.103 188.747 254.385 191.334C253.67 189.145 255.554 186.68 257.831 186.337C260.108 185.994 262.396 187.393 263.629 189.338C265.022 191.534 265.244 194.428 264.204 196.812C263.164 199.196 260.891 201 258.333 201.473C260.904 204.588 263.134 207.985 264.967 211.584C265.365 212.365 265.747 213.164 265.95 214.017C266.317 215.56 266.129 217.334 267.129 218.565C267.46 218.973 267.898 219.283 268.236 219.685C268.673 220.207 268.92 220.858 269.159 221.496C270.747 225.729 272.334 229.961 273.922 234.194C274.473 235.663 275.052 237.177 276.143 238.304C278.556 240.798 283.046 240.993 284.579 244.106C286.085 244.043 287.289 242.356 286.86 240.911C286.004 241.074 285.553 239.888 285.675 239.025C285.797 238.162 286.096 237.153 285.501 236.516C285.148 236.138 284.535 235.985 284.365 235.496C284.178 234.958 284.659 234.442 284.838 233.902C285.121 233.048 284.632 232.156 284.274 231.33C283.071 228.558 283.271 225.405 283.494 222.391C283.548 221.66 283.623 220.875 284.097 220.316C285.09 219.145 286.975 219.725 288.357 220.395C298.997 215.06 307.28 211.613 317.115 210.132C316.068 209.71 314.196 208.651 313.442 207.811C312.688 206.971 312.376 204.823 313.045 203.913C311.857 204.715 310.576 202.822 310.747 201.399C310.918 199.976 311.569 198.36 310.677 197.238C309.53 195.795 306.757 196.512 305.826 194.921C304.934 193.398 306.678 191.241 305.691 189.779C304.84 188.519 302.62 188.855 301.826 187.559C300.959 186.145 302.434 183.777 301.051 182.861C300.624 182.578 300.067 182.585 299.605 182.364C297.702 181.454 298.723 177.727 296.719 177.07C295.882 176.796 294.905 177.285 294.11 176.906C292.606 176.19 293.424 173.423 291.972 172.607C291.017 172.07 289.738 172.81 288.748 172.341C287.584 171.789 287.635 170.043 286.708 169.149C285.464 167.949 283.242 168.87 281.761 167.98C280.552 167.253 280.245 165.57 279.112 164.731C278.533 164.302 277.802 164.142 277.165 163.805C275.91 163.141 275.129 161.863 274.22 160.771C269.408 154.994 261.152 151.432 253.636 151.611C249.735 151.704 245.571 154.815 241.68 155.108C238.032 155.383 233.809 156.108 232.063 159.323C229.316 157.065 225.196 158.316 222.027 159.929C220.096 160.912 218.197 162.007 216.616 163.489C212.407 167.434 211.041 173.466 209.881 179.117C209.665 180.169 209.448 181.23 209.441 182.304C209.436 183.053 209.535 183.8 209.533 184.549C209.531 185.439 209.39 186.323 209.177 187.443C209.031 188.832 208.636 190.195 208.016 191.447C207.627 192.232 207.137 193.103 207.426 193.929C207.651 194.57 208.3 194.996 208.502 195.644C208.761 196.472 208.217 197.308 207.809 198.073C207.401 198.838 207.17 199.924 207.85 200.462C208.041 200.613 208.28 200.695 208.459 200.859C208.945 201.307 208.772 202.096 208.584 202.729C208.396 203.362 208.296 204.187 208.517 204.418V204.416Z" fill="#010101" stroke="#010101" stroke-width="1.5" stroke-linecap="round" stroke-linejoin="round"></path>
<path d="M369.048 309.68C339.351 325.977 311.849 341.632 282.338 357.827C277.474 360.496 268.19 366.577 262.098 370.612C251.992 377.305 243.482 382.212 237.488 392.747C229.075 407.534 230.637 425.831 233.66 442.573C240.396 479.873 253.092 515.819 266.706 551.193C288.865 541.461 314.208 530.138 336.367 520.406C319.512 488.343 304.316 454.888 288.303 415.295C309.727 405.886 331.586 396.477 345.292 388.985C358.83 381.584 379.524 366.413 379.654 343.73C379.728 330.801 375.42 320.604 369.049 309.68H369.048Z" fill="#7B5FF1" stroke="#010101" stroke-width="1.5" stroke-linecap="round" stroke-linejoin="round"></path>
<path d="M316.501 527.7C305.877 487.664 293.02 448.22 278.008 409.614C297.38 398.434 316.752 387.254 336.124 376.074C343.123 372.035 350.332 367.81 355.093 361.28C361.842 352.024 363.299 339.106 359.289 328.375C358.199 325.459 357.07 322.939 355.008 317.422" stroke="#010101" stroke-width="1.5" stroke-linecap="round" stroke-linejoin="round"></path>
<path d="M343.645 324.262C344.635 327.52 348.541 335.551 355.149 336.971C356.828 337.332 359.134 337.36 361.069 337.198" stroke="#010101" stroke-width="1.5" stroke-linecap="round" stroke-linejoin="round"></path>
<path d="M462.4 423.108C471.722 405.327 480.743 383.919 488.179 365.271C491.363 357.284 494.421 348.916 493.843 340.338C493.422 334.088 490.353 327.338 484.41 325.356C480.343 323.999 475.853 325.177 471.966 326.986C463.834 330.77 457.217 337.154 451.187 343.793C431.085 365.927 415.662 392.29 406.906 423.069C426.418 423.245 441.809 423.304 462.4 423.108Z" fill="#55D087" stroke="#010101" stroke-width="1.5" stroke-linecap="round" stroke-linejoin="round"></path>
<path d="M486.117 422.142C495.173 395.026 507.336 368.949 522.294 344.586" stroke="#010101" stroke-width="1.5" stroke-linecap="round" stroke-linejoin="round"></path>
<path d="M497.966 391.266C507.519 387.429 518.006 384.059 527.559 380.222" stroke="#010101" stroke-width="1.5" stroke-linecap="round" stroke-linejoin="round"></path>
<path d="M477.852 391.266C482.6 397.041 486 402.154 490.748 407.93" stroke="#010101" stroke-width="1.5" stroke-linecap="round" stroke-linejoin="round"></path>
<path d="M433.189 423.091C450.566 392.93 469.119 360.729 486.495 330.568" stroke="#010101" stroke-width="1.5" stroke-linecap="round" stroke-linejoin="round"></path>
<path d="M462.4 335.115C463.971 343.642 465.904 352.102 468.19 360.465" stroke="#010101" stroke-width="1.5" stroke-linecap="round" stroke-linejoin="round"></path>
<path d="M452.373 344.173C454.295 354.472 457.039 367.188 459.536 377.362" stroke="#010101" stroke-width="1.5" stroke-linecap="round" stroke-linejoin="round"></path>
<path d="M451.634 392.001C461.713 388.592 471.493 384.302 480.828 379.196" stroke="#010101" stroke-width="1.5" stroke-linecap="round" stroke-linejoin="round"></path>
<path d="M416.853 395.349C422.172 404.18 427.857 412.79 433.888 421.151" stroke="#010101" stroke-width="1.5" stroke-linecap="round" stroke-linejoin="round"></path>
<path d="M196.53 293.458C205.717 279.907 210.596 272.589 217.429 262.34C223.192 253.696 233.628 244.343 245.716 241.439C251.897 248.184 256.607 256.507 264.251 261.535C270.58 265.698 278.62 267.168 286.615 264.878C291.615 262.707 294.827 257.492 295.741 252.118C296.655 246.744 295.572 241.22 293.932 236.021C292.292 230.822 290.095 225.802 288.545 220.782C301.5 212.614 309.677 210.378 317.794 210.102C327.896 209.759 343.511 211.281 355.342 213.097C355.251 224.876 353.676 237.977 352.402 250.301C345.147 249.188 337.84 248.418 330.293 248.24C340.687 270.175 355.187 289.895 369.048 309.679C336.642 326.857 315.106 340.456 282.338 357.826C269.751 335.37 257.13 312.157 245.992 287.74C239.253 302.031 231.022 313.152 222.727 326.382C211.87 318.332 203.575 308.104 196.53 293.458Z" fill="#FF8B37" stroke="#010101" stroke-width="1.5" stroke-linecap="round" stroke-linejoin="round"></path>
<path d="M285.979 264.974C298.577 288.176 311.801 311.037 325.632 333.526" stroke="#010101" stroke-width="1.5" stroke-linecap="round" stroke-linejoin="round"></path>
<path d="M0.75 145.438C2.342 176.783 3.934 208.127 5.526 239.472C44.669 238.538 80.459 236.734 119.445 233.117C115.187 201.033 117.912 143.653 116.506 141.83C82.069 141.83 43.371 142.121 0.75 145.438Z" fill="#E3E3FF" stroke="#010101" stroke-width="1.5" stroke-linecap="round" stroke-linejoin="round"></path>
<path d="M64.648 202.689C58.438 192.576 50.816 183.33 42.073 175.305C33.7 187.826 25.89 200.725 19.5 213.873C33.015 214.457 48.869 213.743 60.012 213.099C60.569 210.346 61.609 207.691 64.648 202.689Z" fill="#7B5FF1" stroke="#010101" stroke-width="1.5" stroke-linecap="round" stroke-linejoin="round"></path>
<path d="M49.103 213.652C58.185 198.911 65.653 185.171 75.665 171.045C86.155 183.665 98.228 197.206 108.25 211.056C101.919 211.623 68.267 212.969 49.103 213.652Z" fill="white" stroke="#010101" stroke-width="1.5" stroke-linecap="round" stroke-linejoin="round"></path>
<path d="M51.0101 166.909C51.6911 168.718 56.0261 171.88 59.7371 168.045C61.4251 166.301 61.3841 163.543 60.3301 161.356C58.3341 157.215 47.8071 158.403 51.0101 166.909Z" fill="white" stroke="#010101" stroke-width="1.5" stroke-linecap="round" stroke-linejoin="round"></path>
<path d="M72.586 199.662C73.298 206.643 74.01 213.624 74.722 220.605C76.601 219.637 78.481 218.67 80.36 217.702C81.289 220.2 82.357 222.647 83.556 225.027C85.008 223.742 86.774 222.814 88.656 222.348C87.245 220.432 86.013 218.386 84.979 216.243C87.134 215.111 89.24 213.885 91.288 212.568C86.644 208.289 81.616 204.426 76.285 201.041C74.764 200.076 73.181 199.115 72.095 197.678C72.188 198.165 72.478 198.612 72.585 199.661L72.586 199.662Z" fill="#010101" stroke="#010101" stroke-width="1.5" stroke-linecap="round" stroke-linejoin="round"></path>
<path d="M49.646 102.352C46.508 96.892 43.258 90.882 44.2 84.656C44.955 79.664 48.367 75.409 52.412 72.388C54.508 70.823 56.881 69.493 59.479 69.192C62.077 68.891 64.933 69.794 66.426 71.942C67.919 74.09 67.545 77.497 65.31 78.858C63.241 80.117 60.312 79.201 58.92 77.219C57.529 75.237 57.511 72.521 58.392 70.265C59.273 68.009 60.937 66.147 62.733 64.522C66.45 61.157 71.146 58.51 76.16 58.557" stroke="#010101" stroke-width="1.5" stroke-linecap="round" stroke-linejoin="round"></path>
<path d="M115.165 4.06999C116.397 28.889 117.629 53.708 118.861 78.527C118.911 79.527 118.984 80.596 119.592 81.392C120.285 82.3 121.489 82.619 122.605 82.861C133.203 85.158 144.11 85.585 154.953 85.784C174.035 86.134 193.123 85.804 212.205 85.474C233.907 85.098 255.608 84.723 277.31 84.347C290.6 84.117 303.917 83.885 317.114 82.298C316.296 55.865 315.479 29.432 314.661 2.99899C305.721 0.872986 296.438 0.793986 287.248 0.765986C227.132 0.580986 167.011 2.08799 115.164 4.07099L115.165 4.06999Z" fill="#E3E3FF" stroke="#010101" stroke-width="1.5" stroke-linecap="round" stroke-linejoin="round"></path>
<path d="M130.873 21.42C131.956 36.267 133.039 51.114 134.122 65.961C154.774 65.187 170.655 65.338 189.179 63.749C188.495 49.595 187.268 35.466 185.5 21.406C167.634 21.406 149.494 20.721 130.872 21.419L130.873 21.42Z" fill="white" stroke="#010101" stroke-width="1.5" stroke-linecap="round" stroke-linejoin="round"></path>
<path d="M135.036 64.905C151.711 50.613 168.385 36.32 185.06 22.028" stroke="#010101" stroke-width="1.5" stroke-linecap="round" stroke-linejoin="round"></path>
<path d="M131.354 22.1069C149.037 37.1559 167.945 50.7649 187.83 62.7549" stroke="#010101" stroke-width="1.5" stroke-linecap="round" stroke-linejoin="round"></path>
<path d="M206.651 24.1989C235.056 21.7219 263.564 20.4259 292.076 20.3149Z" fill="white"></path>
<path d="M206.651 24.1989C235.056 21.7219 263.564 20.4259 292.076 20.3149" stroke="#010101" stroke-width="1.5" stroke-linecap="round" stroke-linejoin="round"></path>
<path d="M208.532 40.715C237.982 39.185 267.45 37.997 296.928 37.151Z" fill="white"></path>
<path d="M208.532 40.715C237.982 39.185 267.45 37.997 296.928 37.151" stroke="#010101" stroke-width="1.5" stroke-linecap="round" stroke-linejoin="round"></path>
<path d="M208.528 56.632C216.667 57.155 224.856 56.9 232.948 55.873Z" fill="white"></path>
<path d="M208.528 56.632C216.667 57.155 224.856 56.9 232.948 55.873" stroke="#010101" stroke-width="1.5" stroke-linecap="round" stroke-linejoin="round"></path>
<path d="M436.498 228.958L435.052 273.361L493.914 272.472L494.8 228.216L436.498 228.958Z" fill="#E3E3FF" stroke="#010101" stroke-width="1.5" stroke-linecap="round" stroke-linejoin="round"></path>
<path d="M472.467 258.656H446.088L446.502 241.036H472.881L472.467 258.656Z" fill="#7B5FF1" stroke="#010101" stroke-width="1.5" stroke-linecap="round" stroke-linejoin="round"></path>
<path d="M472.774 246.66L483.366 242.141V256.557L472.881 252.335L472.774 246.66Z" fill="#7B5FF1" stroke="#010101" stroke-width="1.5" stroke-linecap="round" stroke-linejoin="round"></path>
<path d="M425.988 106.156C426.876 86.314 426.806 63.79 426.736 43.929C413.667 43.353 400.216 43.713 386.803 44.635C381.788 48.23 377.49 53.242 374.229 58.59C374.554 74.797 374.348 91.003 375.22 107.201C390.844 107.701 425.96 106.763 425.987 106.156H425.988Z" fill="white" stroke="#010101" stroke-width="1.5" stroke-linecap="round" stroke-linejoin="round"></path>
<path d="M374.984 58.353C379.36 58.142 383.726 57.713 388.059 57.07C387.414 53.251 387.029 49.388 386.906 45.517" fill="white"></path>
<path d="M374.984 58.353C379.36 58.142 383.726 57.713 388.059 57.07C387.414 53.251 387.029 49.388 386.906 45.517" stroke="#010101" stroke-width="1.5" stroke-linecap="round" stroke-linejoin="round"></path>
<path d="M382.523 64.0699C393.709 63.3679 404.915 62.9979 416.123 62.9609Z" fill="white"></path>
<path d="M382.523 64.0699C393.709 63.3679 404.915 62.9979 416.123 62.9609" stroke="#010101" stroke-width="1.5" stroke-linecap="round" stroke-linejoin="round"></path>
<path d="M383.074 73.796C394.639 72.709 406.241 72.016 417.852 71.718Z" fill="white"></path>
<path d="M383.074 73.796C394.639 72.709 406.241 72.016 417.852 71.718" stroke="#010101" stroke-width="1.5" stroke-linecap="round" stroke-linejoin="round"></path>
<path d="M383.42 81.823C394.637 81.812 405.853 81.355 417.034 80.454Z" fill="white"></path>
<path d="M383.42 81.823C394.637 81.812 405.853 81.355 417.034 80.454" stroke="#010101" stroke-width="1.5" stroke-linecap="round" stroke-linejoin="round"></path>
<path d="M384.319 92.469C388.674 92.278 393.03 92.087 397.385 91.895Z" fill="white"></path>
<path d="M384.319 92.469C388.674 92.278 393.03 92.087 397.385 91.895" stroke="#010101" stroke-width="1.5" stroke-linecap="round" stroke-linejoin="round"></path>
<path d="M248.571 220.53C250.456 219.357 252.248 218.034 253.924 216.579Z" fill="white"></path>
<path d="M248.571 220.53C250.456 219.357 252.248 218.034 253.924 216.579" stroke="#010101" stroke-width="1.5" stroke-linecap="round" stroke-linejoin="round"></path>
<path d="M230.451 197.061C230.337 199.504 230.224 201.947 230.11 204.39C230.089 204.845 230.102 205.378 230.468 205.65C230.773 205.876 231.197 205.819 231.569 205.743C232.719 205.507 233.851 205.186 234.953 204.783" fill="white"></path>
<path d="M230.451 197.061C230.337 199.504 230.224 201.947 230.11 204.39C230.089 204.845 230.102 205.378 230.468 205.65C230.773 205.876 231.197 205.819 231.569 205.743C232.719 205.507 233.851 205.186 234.953 204.783" stroke="#010101" stroke-width="1.5" stroke-linecap="round" stroke-linejoin="round"></path>
<path d="M395.468 423.23C445.574 423.23 475.271 422.648 528.792 421.181" stroke="#010101" stroke-width="1.5" stroke-linecap="round" stroke-linejoin="round"></path>
<path d="M422.289 144.755L421.779 147.965" stroke="#010101" stroke-width="1.5" stroke-linecap="round" stroke-linejoin="round"></path>
<path d="M103.364 356.684C101.231 340.77 97.952 322.86 95.054 307.067C84.573 308.479 73.923 310.69 63.383 313.343C59.907 316.921 57.205 321.524 55.376 326.246C57.954 339.094 60.109 352.018 63.121 364.781C75.623 362.943 103.429 357.172 103.364 356.684Z" fill="white" stroke="#010101" stroke-width="1.5" stroke-linecap="round" stroke-linejoin="round"></path>
<path d="M55.943 325.95C59.395 325.156 62.807 324.19 66.163 323.058C65.103 320.112 64.244 317.094 63.592 314.031" fill="white"></path>
<path d="M55.943 325.95C59.395 325.156 62.807 324.19 66.163 323.058C65.103 320.112 64.244 317.094 63.592 314.031" stroke="#010101" stroke-width="1.5" stroke-linecap="round" stroke-linejoin="round"></path>
<path d="M72.78 339.133C90.21 338.704 92.79 338.545 109.634 339.173C107.093 351.544 107.049 362.712 102.792 374.783C84.033 373.839 56.47 375.181 56.47 375.181C56.47 375.181 54.993 346.982 53.91 333.058C59.387 332.466 65.028 332.367 70.48 332.874C71.496 335.156 72.392 337.756 72.78 339.132V339.133Z" fill="#E3E3FF" stroke="#010101" stroke-width="1.5" stroke-linecap="round" stroke-linejoin="round"></path>
<path d="M69.6259 437.56C68.2549 437.375 66.8049 438.038 66.0489 439.195C65.2919 440.353 65.2679 441.947 65.9879 443.128C67.2709 445.231 70.7899 445.33 72.2449 443.343C73.6999 441.356 72.6449 437.968 69.6259 437.56Z" fill="#010101"></path>
<path d="M540.481 291.906C539.698 291.8 538.869 292.179 538.437 292.841C538.005 293.503 537.991 294.414 538.402 295.088C539.135 296.29 541.146 296.346 541.978 295.211C542.81 294.075 542.207 292.14 540.481 291.906Z" fill="#010101"></path>
<path d="M333.155 135.573C331.141 135.301 329.01 136.275 327.898 137.977C326.786 139.679 326.75 142.022 327.808 143.757C329.693 146.848 334.864 146.993 337.004 144.072C339.144 141.152 337.592 136.173 333.155 135.573Z" fill="#010101"></path>
<path d="M471.504 172.372C473.017 171.127 474.531 169.882 476.044 168.637C475.857 168.743 475.671 168.848 471.504 172.372Z" stroke="#010101" stroke-width="1.5" stroke-linecap="round" stroke-linejoin="round"></path>
<path d="M500.688 456.87C502.463 457.284 504.237 457.699 506.012 458.113" stroke="#010101" stroke-width="1.5" stroke-linecap="round" stroke-linejoin="round"></path>
<path d="M152.202 386.411C153.448 385.081 154.694 383.752 155.94 382.422" stroke="#010101" stroke-width="1.5" stroke-linecap="round" stroke-linejoin="round"></path>
<path d="M149.371 130.376C148.588 130.27 147.759 130.649 147.327 131.311C146.895 131.973 146.881 132.884 147.292 133.558C148.025 134.76 150.036 134.816 150.868 133.681C151.7 132.545 151.097 130.61 149.371 130.376Z" fill="#010101"></path>
</g>
<defs>
<clipPath id="clip0_35_2710">
<rect width="542.348" height="589.797" fill="white"></rect>
</clipPath>
</defs>
</svg>