<svg class="border shadow-md dark:border-slate-700" viewBox="0 0 505.12 505.12" xmlns="http://www.w3.org/2000/svg" preserveAspectRatio="none" style="width: 505.12px; height: 505.12px;"><rect class="bg" id="bg" x="0" y="0" width="505.12" height="505.12" fill="#ffffff"/><path d="M 0 -50.512 L 0 -50.51&#10;                L 33.67 -25.26&#10;                L 101.024 -50.51 L 101.024 -50.51&#10;                L 142.02 -4.51&#10;                L 202.048 -50.51 L 202.048 -50.51&#10;                L 235.72 -11.51&#10;                L 303.072 -50.51 L 303.072 -50.51&#10;                L 336.75 -24.51&#10;                L 404.096 -50.51 L 404.096 -50.51&#10;                L 477.10 -19.51&#10;                L 505.12 -50.51 L 505.12 -50.51&#10;                L 538.79 -18.51&#10;                L 606.144 -50.51  V 505.12 H 0 V -50.51 Z" fill="#F95164"/><path d="M 0 0 L 0 0.00&#10;                L 59.00 45.00&#10;                L 101.024 0.00 L 101.024 0.00&#10;                L 134.70 31.00&#10;                L 202.048 0.00 L 202.048 0.00&#10;                L 235.72 25.26&#10;                L 303.072 0.00 L 303.072 0.00&#10;                L 344.07 25.26&#10;                L 404.096 0.00 L 404.096 0.00&#10;                L 437.77 32.00&#10;                L 505.12 0.00 L 505.12 0.00&#10;                L 538.79 49.00&#10;                L 606.144 0.00  V 505.12 H 0 V 0.00 Z" fill="#e24c61"/><path d="M 0 50.512 L 0 50.51&#10;                L 38.00 86.51&#10;                L 101.024 50.51 L 101.024 50.51&#10;                L 134.70 75.77&#10;                L 202.048 50.51 L 202.048 50.51&#10;                L 235.72 75.77&#10;                L 303.072 50.51 L 303.072 50.51&#10;                L 365.07 75.77&#10;                L 404.096 50.51 L 404.096 50.51&#10;                L 437.77 75.77&#10;                L 505.12 50.51 L 505.12 50.51&#10;                L 541.12 75.77&#10;                L 606.144 50.51  V 505.12 H 0 V 50.51 Z" fill="#cb475e"/><path d="M 0 101.024 L 0 101.02&#10;                L 33.67 126.28&#10;                L 101.024 101.02 L 101.024 101.02&#10;                L 150.02 126.28&#10;                L 202.048 101.02 L 202.048 101.02&#10;                L 235.72 145.02&#10;                L 303.072 101.02 L 303.072 101.02&#10;                L 375.07 126.28&#10;                L 404.096 101.02 L 404.096 101.02&#10;                L 437.77 126.28&#10;                L 505.12 101.02 L 505.12 101.02&#10;                L 538.79 142.02&#10;                L 606.144 101.02  V 505.12 H 0 V 101.02 Z" fill="#b4425b"/><path d="M 0 151.536 L 0 151.54&#10;                L 33.67 176.79&#10;                L 101.024 151.54 L 101.024 151.54&#10;                L 134.70 176.79&#10;                L 202.048 151.54 L 202.048 151.54&#10;                L 243.05 196.54&#10;                L 303.072 151.54 L 303.072 151.54&#10;                L 336.75 194.54&#10;                L 404.096 151.54 L 404.096 151.54&#10;                L 437.77 176.79&#10;                L 505.12 151.54 L 505.12 151.54&#10;                L 538.79 176.79&#10;                L 606.144 151.54  V 505.12 H 0 V 151.54 Z" fill="#9d3d58"/><path d="M 0 202.048 L 0 202.05&#10;                L 41.00 241.05&#10;                L 101.024 202.05 L 101.024 202.05&#10;                L 134.70 227.30&#10;                L 202.048 202.05 L 202.048 202.05&#10;                L 235.72 227.30&#10;                L 303.072 202.05 L 303.072 202.05&#10;                L 340.07 247.05&#10;                L 404.096 202.05 L 404.096 202.05&#10;                L 477.10 230.05&#10;                L 505.12 202.05 L 505.12 202.05&#10;                L 538.79 227.30&#10;                L 606.144 202.05  V 505.12 H 0 V 202.05 Z" fill="#863855"/><path d="M 0 252.56 L 0 252.56&#10;                L 33.67 277.82&#10;                L 101.024 252.56 L 101.024 252.56&#10;                L 134.70 287.56&#10;                L 202.048 252.56 L 202.048 252.56&#10;                L 235.72 277.82&#10;                L 303.072 252.56 L 303.072 252.56&#10;                L 358.07 289.56&#10;                L 404.096 252.56 L 404.096 252.56&#10;                L 476.10 296.56&#10;                L 505.12 252.56 L 505.12 252.56&#10;                L 566.12 285.56&#10;                L 606.144 252.56  V 505.12 H 0 V 252.56 Z" fill="#6f3352"/><path d="M 0 303.072 L 0 303.07&#10;                L 49.00 349.07&#10;                L 101.024 303.07 L 101.024 303.07&#10;                L 176.02 328.33&#10;                L 202.048 303.07 L 202.048 303.07&#10;                L 235.72 328.33&#10;                L 303.072 303.07 L 303.072 303.07&#10;                L 336.75 328.33&#10;                L 404.096 303.07 L 404.096 303.07&#10;                L 466.10 332.07&#10;                L 505.12 303.07 L 505.12 303.07&#10;                L 552.12 328.33&#10;                L 606.144 303.07  V 505.12 H 0 V 303.07 Z" fill="#582e4f"/><path d="M 0 353.584 L 0 353.58&#10;                L 33.67 378.84&#10;                L 101.024 353.58 L 101.024 353.58&#10;                L 134.70 378.84&#10;                L 202.048 353.58 L 202.048 353.58&#10;                L 259.05 379.58&#10;                L 303.072 353.58 L 303.072 353.58&#10;                L 336.75 378.84&#10;                L 404.096 353.58 L 404.096 353.58&#10;                L 437.77 378.84&#10;                L 505.12 353.58 L 505.12 353.58&#10;                L 538.79 378.84&#10;                L 606.144 353.58  V 505.12 H 0 V 353.58 Z" fill="#41294c"/><path d="M 0 404.096 L 0 404.10&#10;                L 52.00 453.10&#10;                L 101.024 404.10 L 101.024 404.10&#10;                L 134.70 446.10&#10;                L 202.048 404.10 L 202.048 404.10&#10;                L 276.05 429.35&#10;                L 303.072 404.10 L 303.072 404.10&#10;                L 336.75 429.35&#10;                L 404.096 404.10 L 404.096 404.10&#10;                L 464.10 429.35&#10;                L 505.12 404.10 L 505.12 404.10&#10;                L 538.79 452.10&#10;                L 606.144 404.10  V 505.12 H 0 V 404.10 Z" fill="#2a2449"/><path d="M 0 454.608 L 0 454.61&#10;                L 33.67 488.61&#10;                L 101.024 454.61 L 101.024 454.61&#10;                L 134.70 497.61&#10;                L 202.048 454.61 L 202.048 454.61&#10;                L 258.05 479.86&#10;                L 303.072 454.61 L 303.072 454.61&#10;                L 336.75 485.61&#10;                L 404.096 454.61 L 404.096 454.61&#10;                L 437.77 489.61&#10;                L 505.12 454.61 L 505.12 454.61&#10;                L 538.79 493.61&#10;                L 606.144 454.61  V 505.12 H 0 V 454.61 Z" fill="#131f46"/></svg>